<svg width="152" height="43" viewBox="0 0 152 43" fill="none" xmlns="http://www.w3.org/2000/svg">
<path fill-rule="evenodd" clip-rule="evenodd" d="M46.8275 10.0543C46.8275 4.91566 50.9932 0.75 56.1318 0.75H95.8683C101.007 0.75 105.173 4.91566 105.173 10.0543C105.173 15.1929 101.007 19.3585 95.8683 19.3585H79.99C78.8074 19.3585 77.8487 20.3172 77.8487 21.4999C77.8487 22.6825 78.8074 23.6412 79.99 23.6412H141.887C147.025 23.6412 151.191 27.8068 151.191 32.9454C151.191 38.0841 147.025 42.2497 141.887 42.2497H10.1131C4.97451 42.2497 0.808838 38.0841 0.808838 32.9454C0.808838 27.8068 4.9745 23.6412 10.1131 23.6412H72.0095C73.1921 23.6412 74.1508 22.6825 74.1508 21.4999C74.1508 20.3172 73.1921 19.3585 72.0095 19.3585H56.1318C50.9932 19.3585 46.8275 15.1929 46.8275 10.0543ZM60.4431 36.9635C59.7377 36.9635 59.186 36.8718 58.7893 36.6862C58.3913 36.5017 58.1136 36.2255 57.9549 35.8554C57.7962 35.4864 57.7169 35.0304 57.7169 34.4849V31.3991C57.7169 30.5133 57.9301 29.8602 58.3578 29.4408C58.7843 29.0214 59.4798 28.8105 60.4443 28.8105H64.9286C65.6142 28.8105 66.1373 28.8449 66.5006 28.9148C66.8626 28.9836 67.0448 29.0558 67.0448 29.1291L66.7473 30.2773C66.5787 30.2498 66.0791 30.22 65.2497 30.1867C64.4203 30.1547 63.2165 30.1386 61.637 30.1386H60.877C60.0823 30.1386 59.6856 30.4663 59.6856 31.1218V34.6511C59.6856 34.9651 59.7724 35.2068 59.946 35.3776C60.1195 35.5483 60.4307 35.6331 60.877 35.6331H61.4882C63.1371 35.6331 64.4165 35.6171 65.3253 35.585C66.234 35.5529 66.7981 35.5185 67.0163 35.4807L67.6275 36.394C67.6275 36.4398 67.5457 36.5097 67.3821 36.6014C67.2184 36.6942 66.9171 36.7767 66.4807 36.85C66.0431 36.9234 65.4133 36.9612 64.5889 36.9612H60.4468L60.4431 36.9635ZM27.2179 36.9635V29.9335L27.0691 28.8129H33.6696C34.3056 28.8129 34.804 28.8919 35.1672 29.0478C35.5292 29.2048 35.7983 29.4099 35.9718 29.6631C36.1454 29.9175 36.257 30.1868 36.3066 30.4732C36.3561 30.7597 36.3809 31.0313 36.3809 31.2903V32.1073C36.3809 32.3193 36.3462 32.5576 36.2768 32.82C36.2074 33.0824 36.0784 33.3368 35.89 33.5809C35.7016 33.8249 35.4276 34.0289 35.0705 34.1893C34.7135 34.3509 34.2461 34.4311 33.6696 34.4311H32.1496C31.5236 34.4311 30.9396 34.4174 30.3991 34.3899C29.8573 34.3624 29.4532 34.3394 29.1854 34.3211V36.9646H27.2191L27.2179 36.9635ZM29.1841 33.1019H33.2369C33.6845 33.1019 33.9919 32.9999 34.1605 32.7971C34.3291 32.5943 34.4134 32.3502 34.4134 32.0637V31.1917C34.4134 30.8961 34.3291 30.6474 34.1605 30.4446C33.9919 30.2418 33.6882 30.1398 33.2518 30.1398H29.1841V33.1019ZM13.0027 36.9633C12.327 36.9633 11.8311 36.9358 11.5125 36.8808C11.1951 36.8258 11.0352 36.7605 11.0352 36.6872L11.6315 35.4829C11.8596 35.5195 12.4287 35.5539 13.3374 35.5871C14.2462 35.6192 15.4959 35.6353 17.0852 35.6353H17.3679C17.7944 35.6353 18.0981 35.5642 18.2766 35.421C18.4552 35.2778 18.5444 35.036 18.5444 34.6945V34.4172C18.5444 34.0941 18.4725 33.8637 18.3287 33.7251C18.1849 33.5864 17.8638 33.5177 17.3679 33.5177H13.9114C12.9085 33.5177 12.1783 33.3447 11.7208 32.9986C11.2633 32.6526 11.0352 32.0876 11.0352 31.3027V31.0816C11.0352 30.6759 11.117 30.3024 11.2807 29.9609C11.4443 29.6194 11.7245 29.3456 12.1225 29.137C12.5192 28.9296 13.0659 28.8253 13.7614 28.8253H17.8142C18.4899 28.8253 19.0354 28.8574 19.4532 28.9227C19.871 28.9869 20.0793 29.0568 20.0793 29.1301L19.7817 30.2932C19.5238 30.2657 18.9374 30.2359 18.0237 30.2027C17.11 30.1706 15.8827 30.1545 14.3429 30.1545L14.1792 30.1408C13.7218 30.1408 13.4143 30.2267 13.2556 30.3963C13.0969 30.5671 13.0114 30.7813 13.0027 31.0403V31.2752C13.0027 31.58 13.0944 31.808 13.2779 31.9604C13.4614 32.1128 13.7676 32.1885 14.1941 32.1885H17.5018C18.1378 32.1885 18.6796 32.2481 19.1259 32.3684C19.5734 32.4887 19.9156 32.7076 20.1536 33.0261C20.3917 33.3447 20.5107 33.8133 20.5107 34.431V34.6521C20.5107 35.3442 20.3198 35.9023 19.9367 36.3262C19.5536 36.7502 18.8916 36.9633 17.9481 36.9633H13.0027ZM45.2154 28.8253L40.8502 36.9633H43.0247L43.993 35.2056H49.3277L50.2067 36.9633H52.5015L48.1511 28.8253H45.2154ZM48.7772 33.85H44.5323L46.5878 30.072H46.7366L48.7772 33.85ZM73.585 28.8253V36.9633H81.7203C82.3761 36.9633 82.8385 36.9473 83.1063 36.9152C83.3741 36.882 83.508 36.8476 83.508 36.8109L82.9117 35.6341H75.5512V33.434H81.124V32.0636H75.5512V30.1534H82.8522V28.8253H73.585ZM92.4627 36.9635L92.4479 30.1409H88.5736V28.8129H98.3181V30.1409H94.429V36.9635H92.4627ZM104.278 28.8253V36.9633H106.244V28.8253H104.278ZM113.247 36.9635V29.9335L113.099 28.8266H115.364L118.731 34.3623L122.217 28.8266H124.228V36.9646H122.262V31.8024H122.098L121.517 33.0068L119.64 36.135H117.837L115.96 33.0068L115.364 31.8024H115.215V36.9646H113.249L113.247 36.9635ZM131.082 28.8253V36.9633H139.218C139.874 36.9633 140.336 36.9473 140.604 36.9152C140.872 36.882 141.005 36.8476 141.005 36.8109L140.409 35.6341H133.049V33.434H138.621V32.0636H133.049V30.1534H140.35V28.8253H131.082ZM59.8873 7.86775V9.83564V9.8367L57.0484 10.8962L59.8873 11.9609V13.9309L54.349 11.9092H54.3376V9.89057H54.349L59.8873 7.86775ZM92.1522 13.8263V11.8594L94.9888 10.801L92.1522 9.74261V7.77472L97.6825 9.79543H97.6962V11.8161H97.6825L92.1522 13.8263ZM89.7774 4.99347L86.5248 15.2428H88.4563L91.7088 4.99347H89.7774ZM68.8302 9.67198C68.8644 8.87025 68.5753 8.08858 68.0256 7.496H68.0267C67.7547 7.21608 67.4245 6.99637 67.0587 6.85165C66.693 6.70694 66.301 6.64145 65.9068 6.65729C65.4839 6.63934 65.0622 6.70694 64.6668 6.85482C64.2713 7.0027 63.9102 7.22875 63.6073 7.51818V6.87067H61.6759V14.0377H63.6073V10.8635C63.6073 9.21671 64.2119 8.39386 65.421 8.39386C65.6233 8.38541 65.8256 8.42238 66.0119 8.5016C66.197 8.58082 66.3628 8.70124 66.4953 8.85229C66.7776 9.1977 66.9216 9.63184 66.8988 10.0734V14.0377H68.8302V9.67198ZM71.2884 3.88974V14.139H73.2198V3.88974H71.2884ZM82.5215 13.763H84.1317L86.8414 6.58333H84.7774L83.2563 10.8909L81.6895 6.58333H80.1832L78.6164 10.8772L77.0952 6.58333H75.0312L77.7386 13.763H79.3478L80.942 9.54098L82.5215 13.763Z" fill="url(#paint0_linear_352_94)"/>
<defs>
<linearGradient id="paint0_linear_352_94" x1="35.6424" y1="-3.9021" x2="159.983" y2="77.9058" gradientUnits="userSpaceOnUse">
<stop offset="0.251308" stop-color="#996DFF"/>
<stop offset="0.623787" stop-color="#FF876E"/>
<stop offset="1" stop-color="#FFD072"/>
</linearGradient>
</defs>
</svg>
